HIERARCHY
ROOT Hips
{
	OFFSET -0.001795 -0.223333 0.028219
	CHANNELS 6 Xposition Yposition Zposition Zrotation Yrotation Xrotation 
	JOINT LeftUpLeg
	{
		OFFSET 0.069520 -0.091406 -0.006815
		CHANNELS 3 Zrotation Yrotation Xrotation
		JOINT LeftLeg
		{
			OFFSET 0.034277 -0.375199 -0.004496
			CHANNELS 3 Zrotation Yrotation Xrotation
			JOINT LeftFoot
			{
				OFFSET -0.013596 -0.397961 -0.043693
				CHANNELS 3 Zrotation Yrotation Xrotation
				JOINT LeftToe
				{
					OFFSET 0.026358 -0.055791 0.119288
					CHANNELS 3 Zrotation Yrotation Xrotation
					End Site
					{
						OFFSET 0.000000 0.000000 0.000000
					}
				}
			}
		}
	}
	JOINT RightUpLeg
	{
		OFFSET -0.067670 -0.090522 -0.004320
		CHANNELS 3 Zrotation Yrotation Xrotation
		JOINT RightLeg
		{
			OFFSET -0.038290 -0.382569 -0.008850
			CHANNELS 3 Zrotation Yrotation Xrotation
			JOINT RightFoot
			{
				OFFSET 0.015774 -0.398415 -0.042312
				CHANNELS 3 Zrotation Yrotation Xrotation
				JOINT RightToe
				{
					OFFSET -0.025372 -0.048144 0.123348
					CHANNELS 3 Zrotation Yrotation Xrotation
					End Site
					{
						OFFSET 0.000000 0.000000 0.000000
					}
				}
			}
		}
	}
	JOINT Spine
	{
		OFFSET -0.002533 0.108963 -0.026696
		CHANNELS 3 Zrotation Yrotation Xrotation
		JOINT Spine1
		{
			OFFSET 0.005487 0.135180 0.001092
			CHANNELS 3 Zrotation Yrotation Xrotation
			JOINT Spine2
			{
				OFFSET 0.001457 0.052922 0.025425
				CHANNELS 3 Zrotation Yrotation Xrotation
				JOINT Neck
				{
					OFFSET -0.002778 0.213870 -0.042857
					CHANNELS 3 Zrotation Yrotation Xrotation
					JOINT Head
					{
						OFFSET 0.005152 0.064970 0.051349
						CHANNELS 3 Zrotation Yrotation Xrotation
						End Site
						{
							OFFSET 0.000000 0.000000 0.000000
						}
					}
				}
				JOINT LeftShoulder
				{
					OFFSET 0.078845 0.121749 -0.034090
					CHANNELS 3 Zrotation Yrotation Xrotation
					JOINT LeftArm
					{
						OFFSET 0.090977 0.030469 -0.008868
						CHANNELS 3 Zrotation Yrotation Xrotation
						JOINT LeftForeArm
						{
							OFFSET 0.259612 -0.012772 -0.027456
							CHANNELS 3 Zrotation Yrotation Xrotation
							JOINT LeftHand
							{
								OFFSET 0.249234 0.008986 -0.001171
								CHANNELS 3 Zrotation Yrotation Xrotation
								End Site
								{
									OFFSET 0.000000 0.000000 0.000000
								}
							}
						}
					}
				}
				JOINT RightShoulder
				{
					OFFSET -0.081759 0.118833 -0.038615
					CHANNELS 3 Zrotation Yrotation Xrotation
					JOINT RightArm
					{
						OFFSET -0.096012 0.032551 -0.009143
						CHANNELS 3 Zrotation Yrotation Xrotation
						JOINT RightForeArm
						{
							OFFSET -0.253742 -0.013329 -0.021401
							CHANNELS 3 Zrotation Yrotation Xrotation
							JOINT RightHand
							{
								OFFSET -0.255298 0.007772 -0.005559
								CHANNELS 3 Zrotation Yrotation Xrotation
								End Site
								{
									OFFSET 0.000000 0.000000 0.000000
								}
							}
						}
					}
				}
			}
		}
	}
}
MOTION
Frames: 10
Frame Time: 0.050000
0.000000 1.033956 0.000000 -1.693208 -1.870728 -2.679355 6.722146 0.418499 11.682343 1.817049 2.253800 -43.537557 1.880965 19.296101 105.908101 0.000000 0.000000 0.000000 -7.497802 0.092500 1.900950 4.640949 -0.291068 -28.389649 -34.990301 -25.684849 108.720993 0.000000 0.000000 0.000000 5.370342 -0.255950 3.078636 -2.600321 1.371723 -45.699489 0.166525 5.415843 51.537539 7.308306 2.216679 -78.758181 0.000000 0.000000 0.000000 7.616207 2.102241 -0.535516 -58.762317 -8.875364 -8.195274 -11.317147 50.549494 -5.343120 0.000000 0.000000 0.000000 -1.614636 -7.365171 -2.809988 60.384087 -0.260132 -10.286868 -15.169400 -44.200682 8.313218 0.000000 0.000000 0.000000 
0.000672 1.024341 -0.001620 -1.815537 -1.465730 -2.979632 8.217334 0.341460 15.338703 0.970147 2.268941 -49.716989 14.737426 21.229786 114.486667 0.000000 0.000000 0.000000 -7.605857 0.101627 1.204801 5.411559 -0.259283 -25.669463 -49.420931 -29.896283 106.749178 0.000000 0.000000 0.000000 5.525436 -0.304902 3.657278 -1.045990 1.256703 -45.828089 -2.773718 6.215854 52.634763 13.566322 1.546543 -78.660293 0.000000 0.000000 0.000000 12.463232 5.366735 -1.266467 -53.031486 -1.596749 -10.689796 -7.193878 51.133040 -4.046062 0.000000 0.000000 0.000000 -4.553808 -11.711212 -4.359625 53.123416 -3.991765 -10.667342 -25.123839 -42.471011 12.049075 0.000000 0.000000 0.000000 
0.002078 1.025963 -0.003786 -0.611631 -2.103820 -4.030750 7.442534 0.547607 16.307789 1.832042 2.865497 -52.100463 -0.088296 20.091832 118.203780 0.000000 0.000000 0.000000 -10.306570 0.161439 3.632858 5.942847 0.001430 -30.653166 -47.144301 -26.652986 113.846312 0.000000 0.000000 0.000000 3.905741 -0.429483 6.246561 -2.244350 1.500280 -52.671252 -0.679566 6.356163 60.013677 12.317206 2.260424 -87.933628 0.000000 0.000000 0.000000 13.489238 3.041883 -1.109561 -44.859165 1.810938 -11.238462 18.397836 60.965318 10.430714 0.000000 0.000000 0.000000 -2.399649 -11.404793 -4.486325 36.377996 -7.461367 -9.686314 -36.873270 -44.101621 17.311657 0.000000 0.000000 0.000000 
0.003986 1.036492 -0.008156 -1.728174 -3.434679 -3.711996 9.608215 0.239876 11.725067 4.156746 3.355223 -45.934407 -5.719325 20.721924 122.277163 0.000000 0.000000 0.000000 -9.143004 0.175866 1.561375 5.144673 -0.067149 -28.542499 -45.775084 -26.222935 113.232438 0.000000 0.000000 0.000000 4.754661 -0.435216 5.821153 -0.456478 1.571674 -50.639799 -2.608902 7.706280 59.398662 17.051314 2.128966 -87.680036 0.000000 0.000000 0.000000 19.940011 7.893405 -2.305092 -37.473766 10.489697 -11.321118 50.878575 53.054136 25.572323 0.000000 0.000000 0.000000 -8.348120 -9.740467 -3.962992 29.975400 -13.238124 -8.853833 -42.166500 -39.458533 17.315452 0.000000 0.000000 0.000000 
0.006949 1.055864 -0.012217 -0.660699 -3.769741 -4.500296 9.230562 0.245926 8.168153 3.292638 2.258519 -35.853501 -6.381054 20.783319 120.929653 0.000000 0.000000 0.000000 -9.834387 0.216963 -0.742950 2.899495 -0.392375 -24.677062 -34.197057 -23.236806 115.203067 0.000000 0.000000 0.000000 3.262477 -0.465548 7.461899 -2.432491 1.649220 -50.692991 -0.172622 8.172733 60.515032 16.063415 2.156216 -90.835930 0.000000 0.000000 0.000000 27.231246 9.584368 -2.531618 -26.298882 17.610258 -8.836310 59.604931 39.180426 20.621843 0.000000 0.000000 0.000000 -12.421100 -14.442690 -5.679199 18.458626 -19.904565 -5.782412 -44.019299 -26.732250 12.053602 0.000000 0.000000 0.000000 
0.010541 1.079850 -0.016100 -0.723354 -5.783077 -4.505162 9.239840 0.261282 5.321861 5.290867 2.004764 -28.158330 -18.582001 18.480214 111.438532 0.000000 0.000000 0.000000 -9.395885 0.298540 -3.327161 1.435364 -0.443437 -20.964331 -30.290166 -21.625962 116.036981 0.000000 0.000000 0.000000 3.158132 -0.414339 6.882384 -1.267338 1.860929 -50.691312 -0.746661 8.533358 61.464469 15.907234 2.038007 -89.719992 0.000000 0.000000 0.000000 31.196997 11.107748 -3.270112 -13.434434 27.670927 -4.774423 60.131542 25.767448 12.515270 0.000000 0.000000 0.000000 -18.149077 -13.900574 -5.386674 8.229354 -25.676531 -2.078527 -42.657750 -19.703432 7.985190 0.000000 0.000000 0.000000 
0.013579 1.094600 -0.019293 -0.616022 -7.007932 -3.751837 9.609521 0.219598 2.237647 5.364406 1.548949 -23.325791 -23.816366 16.151682 105.153236 0.000000 0.000000 0.000000 -8.305752 0.361506 -4.158008 0.100520 -0.505427 -20.513999 -27.101526 -20.730316 115.651418 0.000000 0.000000 0.000000 2.512572 -0.303828 5.358745 -1.243376 1.905919 -49.199354 0.085200 9.197039 62.048125 18.011419 2.073475 -91.848548 0.000000 0.000000 0.000000 33.562721 12.412186 -3.876685 -0.502826 35.740066 0.863796 56.155426 13.006847 4.289810 0.000000 0.000000 0.000000 -18.359208 -15.286919 -5.812973 -3.297926 -31.611960 2.964859 -41.398369 -14.894229 5.102874 0.000000 0.000000 0.000000 
0.016195 1.093007 -0.020152 -0.847803 -6.850733 -3.575544 8.896243 0.189113 1.513680 7.756982 1.807608 -23.663243 -25.410858 14.609427 102.063416 0.000000 0.000000 0.000000 -7.855239 0.352951 -3.854457 -0.293600 -0.567878 -22.225071 -28.033086 -20.976770 115.669802 0.000000 0.000000 0.000000 1.881316 -0.213856 4.036023 -1.447967 1.825713 -47.869599 0.457915 8.336433 62.470520 21.866196 2.449583 -93.517568 0.000000 0.000000 0.000000 35.667209 15.311569 -4.579202 12.526875 38.197381 7.543034 55.528521 6.245776 0.275357 0.000000 0.000000 0.000000 -18.303059 -15.412392 -5.751403 -13.487431 -35.695767 7.858014 -43.030986 -14.756928 4.373463 0.000000 0.000000 0.000000 
0.018957 1.073699 -0.019542 -1.272940 -6.706217 -3.593239 9.141355 0.189927 1.744767 7.647574 1.965188 -24.980559 -20.890931 16.886104 105.927384 0.000000 0.000000 0.000000 -7.778852 0.288929 -1.759182 -0.239411 -0.607625 -26.953231 -35.229654 -21.942676 117.107220 0.000000 0.000000 0.000000 2.399527 -0.230045 4.050363 -0.254560 1.724721 -47.276444 0.407086 10.413053 62.981564 24.741507 2.653692 -96.898665 0.000000 0.000000 0.000000 37.092838 16.410919 -4.246302 21.032395 37.858275 11.304988 55.660407 11.224251 1.484298 0.000000 0.000000 0.000000 -17.973980 -16.207238 -6.460408 -24.265954 -41.233193 14.411517 -45.030829 -15.382072 4.477401 0.000000 0.000000 0.000000 
0.022058 1.049825 -0.017167 -2.152566 -3.642260 -2.372118 9.655133 0.064980 1.957304 6.243950 1.860901 -26.717220 -11.805247 17.414745 105.957838 0.000000 0.000000 0.000000 -7.391313 0.145015 1.414741 -1.964476 -1.310470 -33.427111 -44.264714 -23.822504 119.593490 0.000000 0.000000 0.000000 2.988999 -0.153890 2.361312 -4.732701 1.622583 -47.856033 2.914237 5.221034 64.473250 22.028139 3.410484 -98.634140 0.000000 0.000000 0.000000 36.300278 17.573985 -5.225113 23.373417 38.201642 12.996510 54.361393 13.164687 2.561623 0.000000 0.000000 0.000000 -17.827165 -14.907468 -5.929164 -31.320129 -43.240670 18.048749 -43.187585 -15.840029 3.811216 0.000000 0.000000 0.000000 
